<svg width="69" height="20" viewBox="0 0 69 20" fill="none" xmlns="http://www.w3.org/2000/svg">
<path d="M25.264 16L22.24 7.52H25.248L26.88 12.64L28.448 7.52H31.456L28.416 16H25.264ZM34.2311 6.672C33.7298 6.672 33.3138 6.512 32.9831 6.192C32.6631 5.86133 32.5031 5.472 32.5031 5.024C32.5031 4.55467 32.6631 4.16 32.9831 3.84C33.3138 3.52 33.7298 3.36 34.2311 3.36C34.7325 3.36 35.1485 3.52 35.4791 3.84C35.8098 4.16 35.9751 4.55467 35.9751 5.024C35.9751 5.472 35.8098 5.86133 35.4791 6.192C35.1485 6.512 34.7325 6.672 34.2311 6.672ZM32.7111 16V7.52H35.7511V16H32.7111ZM43.2613 16.16C42.8453 16.16 42.4879 16.1067 42.1893 16C41.8906 15.8827 41.6453 15.7547 41.4533 15.616C41.2719 15.4773 41.1333 15.3547 41.0373 15.248C40.9519 15.1307 40.9093 15.072 40.9093 15.072H40.7812V16H37.7413V3.84H40.7812V8.448H40.9093C40.9093 8.448 40.9519 8.39467 41.0373 8.288C41.1333 8.17067 41.2719 8.04267 41.4533 7.904C41.6453 7.76533 41.8906 7.64267 42.1893 7.536C42.4879 7.41867 42.8453 7.36 43.2613 7.36C43.8799 7.36 44.4133 7.488 44.8612 7.744C45.3199 7.98933 45.6986 8.32533 45.9973 8.752C46.3066 9.168 46.5359 9.63733 46.6853 10.16C46.8346 10.6827 46.9093 11.216 46.9093 11.76C46.9093 12.304 46.8346 12.8373 46.6853 13.36C46.5359 13.8827 46.3066 14.3573 45.9973 14.784C45.6986 15.2 45.3199 15.536 44.8612 15.792C44.4133 16.0373 43.8799 16.16 43.2613 16.16ZM42.2533 13.744C42.6159 13.744 42.9093 13.648 43.1333 13.456C43.3679 13.2533 43.5439 13.0027 43.6613 12.704C43.7786 12.3947 43.8373 12.08 43.8373 11.76C43.8373 11.44 43.7786 11.1307 43.6613 10.832C43.5439 10.5227 43.3679 10.272 43.1333 10.08C42.9093 9.87733 42.6159 9.776 42.2533 9.776C41.9013 9.776 41.6079 9.87733 41.3733 10.08C41.1386 10.272 40.9626 10.5227 40.8453 10.832C40.7279 11.1307 40.6693 11.44 40.6693 11.76C40.6693 12.08 40.7279 12.3947 40.8453 12.704C40.9626 13.0027 41.1386 13.2533 41.3733 13.456C41.6079 13.648 41.9013 13.744 42.2533 13.744ZM52.8109 16.16C52.0322 16.16 51.3549 16.0373 50.7789 15.792C50.2135 15.5467 49.7442 15.216 49.3709 14.8C48.9975 14.3733 48.7202 13.8987 48.5389 13.376C48.3575 12.8427 48.2669 12.2987 48.2669 11.744C48.2669 11.2107 48.3522 10.6827 48.5229 10.16C48.7042 9.63733 48.9762 9.168 49.3389 8.752C49.7015 8.32533 50.1602 7.98933 50.7149 7.744C51.2802 7.488 51.9469 7.36 52.7149 7.36C53.5469 7.36 54.2775 7.536 54.9069 7.888C55.5362 8.24 56.0269 8.752 56.3789 9.424C56.7309 10.0853 56.9069 10.8907 56.9069 11.84V12.528H51.3229C51.3549 12.8907 51.4935 13.2107 51.7389 13.488C51.9949 13.7653 52.3522 13.904 52.8109 13.904C53.1629 13.904 53.4295 13.8453 53.6109 13.728C53.7922 13.6 53.9149 13.4773 53.9789 13.36C54.0429 13.232 54.0749 13.168 54.0749 13.168H56.8589C56.8589 13.168 56.8322 13.2693 56.7789 13.472C56.7255 13.6747 56.6242 13.9253 56.4749 14.224C56.3255 14.512 56.1015 14.8053 55.8029 15.104C55.5042 15.4027 55.1095 15.6533 54.6189 15.856C54.1389 16.0587 53.5362 16.16 52.8109 16.16ZM51.3069 10.848H54.0109C54.0002 10.4107 53.8722 10.0853 53.6269 9.872C53.3815 9.648 53.0562 9.536 52.6509 9.536C52.3095 9.536 52.0055 9.64267 51.7389 9.856C51.4829 10.0693 51.3389 10.4 51.3069 10.848ZM62.8909 16.16C61.9202 16.16 61.0882 15.9573 60.3949 15.552C59.7015 15.1467 59.1735 14.6133 58.8109 13.952C58.4482 13.28 58.2669 12.5493 58.2669 11.76C58.2669 10.9707 58.4482 10.2453 58.8109 9.584C59.1735 8.912 59.7015 8.37333 60.3949 7.968C61.0882 7.56267 61.9202 7.36 62.8909 7.36C63.8722 7.36 64.7042 7.56267 65.3869 7.968C66.0802 8.37333 66.6082 8.912 66.9709 9.584C67.3335 10.2453 67.5149 10.9707 67.5149 11.76C67.5149 12.5493 67.3335 13.28 66.9709 13.952C66.6082 14.6133 66.0802 15.1467 65.3869 15.552C64.7042 15.9573 63.8722 16.16 62.8909 16.16ZM62.8909 13.728C63.3815 13.728 63.7655 13.5413 64.0429 13.168C64.3309 12.784 64.4749 12.3147 64.4749 11.76C64.4749 11.2053 64.3309 10.7413 64.0429 10.368C63.7655 9.984 63.3815 9.792 62.8909 9.792C62.4002 9.792 62.0109 9.984 61.7229 10.368C61.4455 10.7413 61.3069 11.2053 61.3069 11.76C61.3069 12.3147 61.4455 12.784 61.7229 13.168C62.0109 13.5413 62.4002 13.728 62.8909 13.728Z" fill="#F0F0F0"/>
<path fill-rule="evenodd" clip-rule="evenodd" d="M6.05475 2C5.40019 2 4.86957 2.53063 4.86957 3.18519V6.86957H1.18519C0.530626 6.86957 0 7.40019 0 8.05475V16.8148C0 17.4694 0.530626 18 1.18519 18H9.94525C10.5998 18 11.1304 17.4694 11.1304 16.8148V13.1304H14.8148C15.4694 13.1304 16 12.5998 16 11.9452V3.18519C16 2.53063 15.4694 2 14.8148 2H6.05475ZM11.1304 13.1304V8.05475C11.1304 7.40019 10.5998 6.86957 9.94525 6.86957H4.86957V11.9452C4.86957 12.5998 5.40019 13.1304 6.05475 13.1304H11.1304Z" fill="#28C28F"/>
</svg>
